<?xml version="1.0" encoding="UTF-8" standalone="no"?>
<svg width="100px" height="100px" viewBox="0 0 100 100" version="1.1" xmlns="http://www.w3.org/2000/svg" xmlns:xlink="http://www.w3.org/1999/xlink" xmlns:sketch="http://www.bohemiancoding.com/sketch/ns">
    <!-- Generator: Sketch 3.3.2 (12043) - http://www.bohemiancoding.com/sketch -->
    <title>Untitled</title>
    <desc>Created with Sketch.</desc>
    <defs></defs>
    <g id="Page-1" stroke="none" stroke-width="1" fill="none" fill-rule="evenodd" sketch:type="MSPage">
        <circle id="Oval-815" fill="#77B4BE" sketch:type="MSShapeGroup" cx="50" cy="50" r="50"></circle>
        <g id="plainicon.com-50316-svg" sketch:type="MSLayerGroup" transform="translate(23.000000, 24.000000)" fill="#FFFFFF">
            <path d="M43.4675431,37.7373524 C43.6421941,37.7476068 43.8322554,37.7681156 44.0197484,37.7681156 C46.6780388,37.7681156 49.3388976,37.752734 51.997188,37.7809335 C52.580214,37.7860607 52.7522966,37.5861003 52.7214759,37.0298 C52.6829499,36.306866 52.7137707,35.5762412 52.7137707,34.6789826 C55.7316366,36.896493 58.6493351,39.0370955 61.641517,41.2366607 C58.6724506,43.4208443 55.7547522,45.5640104 52.7137707,47.7994659 L52.7137707,45.5588832 C52.7137707,44.6564975 52.7137707,44.6513703 51.835379,44.6513703 L0.834728877,44.6513703 C0.0179787758,44.6513703 0.0179787758,44.6513703 0.0179787758,43.8258924 C0.0179787758,42.033939 0.0385259482,40.2471127 0.00256839654,38.4602864 C-0.0128419827,37.8757866 0.177219362,37.7501704 0.734561411,37.7501704 C9.87805311,37.765552 19.0138396,37.7834971 28.1521945,37.7552976 C32.8395182,37.7450432 36.5380092,35.8069648 38.9856911,31.7769922 C43.3981964,24.4963801 38.7956298,14.9623673 30.3404684,13.7369685 C23.809036,12.7884381 17.7373465,17.1644961 16.632936,23.7939548 C16.5147898,24.4861257 16.5070846,25.1936782 16.4377379,26.0242832 C17.5087592,25.8781582 18.4770447,25.7448513 19.5737501,25.5987263 C17.8554928,28.9108921 16.2014454,32.1102596 14.5165773,35.3557719 C11.9404755,32.7024503 9.40289975,30.0927097 6.91926029,27.5419319 C7.54338065,27.4342609 8.37040434,27.3188991 9.18972283,27.1471382 C9.34896342,27.1138114 9.57498231,26.862579 9.56984552,26.7190177 C9.52104599,24.9834633 9.63919223,23.2684177 9.98078897,21.5661901 C9.99363095,21.5123546 9.96794699,21.4559555 9.94996821,21.3534116 C8.29078404,21.0688525 6.75231451,20.4715347 5.3525384,19.5101863 C1.94170779,17.1516781 0.156672189,12.7679293 0.996537859,8.76871985 C1.90575024,4.41060698 5.201003,1.15484032 9.45683607,0.349871234 C12.215294,-0.167975119 14.7708485,0.326798871 17.1466153,1.78292129 C17.5678324,2.03928087 17.8221036,2.0777348 18.096922,1.62910554 C18.258731,1.36505517 18.5001603,1.15227672 18.7801155,0.831827244 C19.1242807,2.22129617 19.450467,3.52360284 19.7689482,4.82334591 C19.8793892,5.26172079 19.9615779,5.70778646 20.0925662,6.13847056 C20.2286912,6.61529937 20.084861,6.82295063 19.5917288,6.79218749 C18.161132,6.69220725 16.7279667,6.60760859 15.2948014,6.51275554 C14.9403627,6.48711958 14.5910608,6.45122924 14.1364546,6.40508452 C14.4908933,5.95901885 14.8119429,5.5616615 15.1612448,5.12328662 C14.3881574,4.53878677 13.5380182,4.24397326 12.6519214,4.10041189 C8.36269915,3.40055024 4.58201943,6.68964365 4.66934492,11.0221206 C4.73355483,14.3445407 7.54338065,17.3183119 10.8591806,17.6003074 C11.2906712,17.6361977 11.4396382,17.4182921 11.6040156,17.0978426 C13.9592352,12.5936048 17.4984857,9.4096188 22.3142292,7.75353591 C33.4559334,3.91839659 45.0882013,10.7913969 47.2353808,22.0378917 C48.2935602,27.5726951 47.0864138,32.6332332 43.7243828,37.163107 C43.6293521,37.2912867 43.5471634,37.4245937 43.4624063,37.5553371 C43.4444275,37.5784095 43.4675431,37.6296814 43.4829535,37.7296616 L43.4675431,37.7373524 L43.4675431,37.7373524 Z" id="Shape" sketch:type="MSShapeGroup"></path>
        </g>
    </g>
</svg>